<svg width="135" height="166" viewBox="0 0 135 166" fill="none" xmlns="http://www.w3.org/2000/svg">
<path d="M1.61267 14.1963C1.24445 14.1967 0.223785 14.1963 0.223785 14.1963C0.223785 14.1963 0.224218 15.218 0.223785 15.5866V164.347C0.224218 164.716 0.223785 165.737 0.223785 165.737C0.223785 165.737 1.24445 165.737 1.61267 165.737H121.335C121.703 165.737 122.724 165.737 122.724 165.737C122.724 165.737 122.723 164.716 122.724 164.347V15.5866C122.723 15.218 122.577 14.8646 122.316 14.604C122.056 14.3433 121.703 14.1967 121.335 14.1963H1.61267Z" fill="#E7E7E7"/>
<path d="M102.307 79.1572H20.6404V74.9863H102.307V79.1572Z" fill="white"/>
<path d="M103.008 40.2988H48.8281V36.1279H103.008V40.2988Z" fill="white"/>
<path d="M103.008 52.2553H48.8281V48.0845H103.008V52.2553Z" fill="white"/>
<path d="M102.307 92.643H20.6404V88.4722H102.307V92.643Z" fill="white"/>
<path d="M102.307 106.129H20.6404V101.958H102.307V106.129Z" fill="white"/>
<path d="M102.307 119.614H20.6404V115.443H102.307V119.614Z" fill="white"/>
<path d="M102.307 133.1H20.6404V128.929H102.307V133.1Z" fill="white"/>
<path d="M102.307 146.586H20.6404V142.415H102.307V146.586Z" fill="white"/>
<path d="M29.5293 55.3137C35.5891 55.3137 40.5015 50.3963 40.5015 44.3304C40.5015 38.2645 35.5891 33.3472 29.5293 33.3472C23.4695 33.3472 18.5571 38.2645 18.5571 44.3304C18.5571 50.3963 23.4695 55.3137 29.5293 55.3137Z" fill="white"/>
<path d="M118.93 32.0649C127.775 32.0649 134.946 24.8869 134.946 16.0324C134.946 7.17797 127.775 0 118.93 0C110.084 0 102.913 7.17797 102.913 16.0324C102.913 24.8869 110.084 32.0649 118.93 32.0649Z" fill="#0066A2"/>
<path d="M112.256 14.9748V17.0908H117.873V22.7129H119.987V17.0908H125.603V14.9748H119.987V9.35254H117.873V14.9748H112.256Z" fill="white"/>
</svg>
