<svg width="25" height="17" viewBox="0 0 25 17" fill="none" xmlns="http://www.w3.org/2000/svg">
<path d="M25 0.166626H0V16.8335H25V0.166626Z" fill="#F0F0F0"/>
<path d="M14.0625 0.166504H10.9375V6.9373H0V10.0623H10.9375V16.8331H14.0625V10.0623H25V6.9373H14.0625V0.166504Z" fill="#D80027"/>
<path d="M19.2279 11.3983L25.0001 14.6052V11.3983H19.2279Z" fill="#0052B4"/>
<path d="M15.2174 11.3983L25 16.8331V15.2963L17.9838 11.3983H15.2174Z" fill="#0052B4"/>
<path d="M22.3943 16.833L15.2174 12.8455V16.833H22.3943Z" fill="#0052B4"/>
<path d="M15.2174 11.3983L25 16.8331V15.2963L17.9838 11.3983H15.2174Z" fill="#F0F0F0"/>
<path d="M15.2174 11.3983L25 16.8331V15.2963L17.9838 11.3983H15.2174Z" fill="#D80027"/>
<path d="M4.41118 11.3983L0 13.8489V11.3983H4.41118Z" fill="#0052B4"/>
<path d="M9.78269 12.0894V16.8331H1.24475L9.78269 12.0894Z" fill="#0052B4"/>
<path d="M7.01626 11.3983L0 15.2963V16.8331L9.78262 11.3983H7.01626Z" fill="#D80027"/>
<path d="M5.77222 5.60125L0 2.39441V5.60125H5.77222Z" fill="#0052B4"/>
<path d="M9.78262 5.60127L0 0.166504V1.70332L7.01626 5.60127H9.78262Z" fill="#0052B4"/>
<path d="M2.60583 0.166504L9.78269 4.15401V0.166504H2.60583Z" fill="#0052B4"/>
<path d="M9.78262 5.60127L0 0.166504V1.70332L7.01626 5.60127H9.78262Z" fill="#F0F0F0"/>
<path d="M9.78262 5.60127L0 0.166504V1.70332L7.01626 5.60127H9.78262Z" fill="#D80027"/>
<path d="M20.5889 5.60138L25.0001 3.1507V5.60138H20.5889Z" fill="#0052B4"/>
<path d="M15.2174 4.91026V0.166565H23.7553L15.2174 4.91026Z" fill="#0052B4"/>
<path d="M17.9838 5.60127L25 1.70332V0.166504L15.2174 5.60127H17.9838Z" fill="#D80027"/>
</svg>
