<svg width="13" height="9" viewBox="0 0 13 9" fill="none" xmlns="http://www.w3.org/2000/svg">
<path d="M10.6364 2.25L8.27273 4.5H10.0455C10.0455 5.39511 9.67192 6.25355 9.00701 6.88649C8.34211 7.51942 7.44031 7.875 6.5 7.875C5.90909 7.875 5.33591 7.73437 4.84545 7.48125L3.98273 8.3025C4.70955 8.74125 5.57227 9 6.5 9C7.75375 9 8.95615 8.52589 9.84269 7.68198C10.7292 6.83807 11.2273 5.69347 11.2273 4.5H13L10.6364 2.25ZM2.95455 4.5C2.95455 3.60489 3.32808 2.74645 3.99298 2.11351C4.65789 1.48058 5.55969 1.125 6.5 1.125C7.09091 1.125 7.66409 1.26562 8.15455 1.51875L9.01727 0.6975C8.29045 0.25875 7.42773 0 6.5 0C5.24625 0 4.04385 0.474106 3.15731 1.31802C2.27078 2.16193 1.77273 3.30653 1.77273 4.5H0L2.36364 6.75L4.72727 4.5" fill="white"/>
</svg>
