<svg width="14" height="18" viewBox="0 0 14 18" xmlns="http://www.w3.org/2000/svg">
<path d="M6.99995 0C3.52616 0 0.699951 2.80679 0.699951 6.25671C0.699951 10.5929 7.00615 18 7.00615 18C7.00615 18 13.2999 10.3797 13.2999 6.25671C13.2999 2.80679 10.4739 0 6.99995 0ZM8.90079 8.08868C8.37666 8.60911 7.68836 8.86937 6.99995 8.86937C6.31165 8.86937 5.62313 8.60911 5.09922 8.08868C4.05106 7.04784 4.05106 5.35419 5.09922 4.31323C5.60676 3.80896 6.28189 3.53123 6.99995 3.53123C7.71801 3.53123 8.39303 3.80907 8.90079 4.31323C9.94895 5.35419 9.94895 7.04784 8.90079 8.08868Z"/>
</svg>
