<svg width="22" height="22" viewBox="0 0 22 22" fill="none" xmlns="http://www.w3.org/2000/svg">
<g clip-path="url(#clip0)">
<path d="M11.0036 5.35156C7.88418 5.35156 5.35876 7.87973 5.35876 10.9964C5.35876 14.1158 7.88693 16.6412 11.0036 16.6412C14.123 16.6412 16.6484 14.1131 16.6484 10.9964C16.6484 7.87698 14.1203 5.35156 11.0036 5.35156ZM11.0036 14.6603C8.97868 14.6603 7.33968 13.0204 7.33968 10.9964C7.33968 8.9724 8.9796 7.33248 11.0036 7.33248C13.0276 7.33248 14.6675 8.9724 14.6675 10.9964C14.6684 13.0204 13.0285 14.6603 11.0036 14.6603Z" fill="white"/>
<path d="M15.5356 0.0695927C13.5116 -0.0248239 8.49838 -0.0202406 6.47255 0.0695927C4.69238 0.153009 3.12213 0.582926 1.85621 1.84884C-0.259453 3.96451 0.0109642 6.81534 0.0109642 10.9963C0.0109642 15.2753 -0.227369 18.0601 1.85621 20.1437C3.98013 22.2667 6.87221 21.9889 11.0036 21.9889C15.2423 21.9889 16.7053 21.9917 18.204 21.4114C20.2418 20.6203 21.78 18.7989 21.9303 15.5273C22.0256 13.5024 22.0201 8.49009 21.9303 6.46426C21.7488 2.60234 19.6762 0.260259 15.5356 0.0695927ZM18.7394 18.7439C17.3525 20.1308 15.4284 20.0071 10.977 20.0071C6.39371 20.0071 4.5558 20.0749 3.21471 18.7302C1.67013 17.1929 1.94971 14.7243 1.94971 10.9816C1.94971 5.91701 1.42996 2.26959 6.51288 2.00926C7.68071 1.96801 8.02446 1.95426 10.9642 1.95426L11.0055 1.98176C15.8904 1.98176 19.723 1.47026 19.953 6.55226C20.0053 7.71184 20.0172 8.06018 20.0172 10.9953C20.0163 15.5255 20.1025 17.3744 18.7394 18.7439Z" fill="white"/>
<path d="M16.8722 6.44773C17.6007 6.44773 18.1913 5.85716 18.1913 5.12865C18.1913 4.40014 17.6007 3.80957 16.8722 3.80957C16.1437 3.80957 15.5531 4.40014 15.5531 5.12865C15.5531 5.85716 16.1437 6.44773 16.8722 6.44773Z" fill="white"/>
</g>
<defs>
<clipPath id="clip0">
<rect width="22" height="22" fill="white"/>
</clipPath>
</defs>
</svg>
