<svg width="24" height="24" viewBox="0 0 24 24"  xmlns="http://www.w3.org/2000/svg">
<g clip-path="url(#clip0)">
<path d="M8 15C8.82843 15 9.5 14.3284 9.5 13.5C9.5 12.6716 8.82843 12 8 12C7.17157 12 6.5 12.6716 6.5 13.5C6.5 14.3284 7.17157 15 8 15Z" />
<path d="M22.281 10.963C22.395 9.979 22.5 8.858 22.5 8.087C22.5 2.56 16.06 0.5 12 0.5C9.366 0.5 7.465 1.913 6.826 2.462C4.826 2.577 1.5 3.85 1.5 8.087C1.5 8.869 1.604 9.985 1.717 10.964C0.704 11.378 0 12.358 0 13.5C0 14.944 1.123 16.119 2.539 16.229C3.894 20.162 7.619 23 12 23C16.381 23 20.106 20.163 21.461 16.229C22.878 16.119 24 14.944 24 13.5C24 12.357 23.296 11.377 22.281 10.963ZM20.175 15.327C20.175 15.329 20.173 15.33 20.173 15.332V15.335C19.147 18.89 15.875 21.5 12 21.5C7.775 21.5 4.269 18.397 3.609 14.349L4.607 10.858C5.498 10.575 7.494 9.774 8.368 8.083C9.713 9.354 12.727 10.914 19.434 10.997L20.392 14.344C20.338 14.678 20.267 15.006 20.175 15.327Z" />
<path d="M16 15C16.8284 15 17.5 14.3284 17.5 13.5C17.5 12.6716 16.8284 12 16 12C15.1716 12 14.5 12.6716 14.5 13.5C14.5 14.3284 15.1716 15 16 15Z" />
<path d="M13.9789 17.2101C12.8879 18.2651 11.1119 18.2651 10.0209 17.2101C9.72389 16.9251 9.24789 16.9311 8.95989 17.2301C8.67189 17.5281 8.68089 18.0021 8.97889 18.2911C9.81189 19.0951 10.9059 19.4961 11.9999 19.4961C13.0939 19.4961 14.1879 19.0951 15.0209 18.2911C15.3189 18.0031 15.3269 17.5281 15.0399 17.2301C14.7519 16.9311 14.2769 16.9251 13.9789 17.2101Z" />
</g>
<defs>
<clipPath id="clip0">
<rect width="24" height="24" fill="white"/>
</clipPath>
</defs>
</svg>
