<svg width="24" height="26" viewBox="0 0 24 26"   xmlns="http://www.w3.org/2000/svg">
<path d="M22.53 1.2998H23.28V0.549805H22.53V1.2998ZM22.53 24.6998V25.4498H23.28V24.6998H22.53ZM12 2.0498H22.53V0.549805H12V2.0498ZM21.78 1.2998V24.6998H23.28V1.2998H21.78ZM22.53 23.9498H12V25.4498H22.53V23.9498Z" />
<path d="M15.51 12.9998L16.0276 13.5425L16.5966 12.9998L16.0276 12.4571L15.51 12.9998ZM16.0276 12.4571L11.1212 7.77712L10.0859 8.86253L14.9923 13.5425L16.0276 12.4571ZM14.9923 12.4571L10.0859 17.1371L11.1212 18.2225L16.0276 13.5425L14.9923 12.4571ZM15.51 12.2498H0.299988V13.7498H15.51V12.2498Z" />
</svg>
