<svg width="18" height="17" viewBox="0 0 18 17"  xmlns="http://www.w3.org/2000/svg">
<path d="M16.6691 3.58881C16.455 3.08273 16.163 2.61557 15.7543 2.22628C15.365 1.83698 14.8978 1.52555 14.3917 1.31144C13.8856 1.11679 13.3796 1 12.8346 1C12.2895 1 11.764 1.09732 11.2774 1.31144C10.7713 1.52555 10.3041 1.81752 9.91484 2.22628L7.26764 4.83455L6.80049 5.3017L6.33333 5.76886L1.93431 10.1679C1.3309 10.7713 1 11.5888 1 12.4453C1 13.3017 1.3309 14.0998 1.93431 14.7226C2.53771 15.326 3.35523 15.6569 4.21168 15.6569C5.06813 15.6569 5.86618 15.326 6.48905 14.7226L8.31873 12.8929L10.9075 10.3041L13.3601 7.85158C13.8078 7.40389 14.0414 6.81995 14.0414 6.19708C14.0414 5.57421 13.7883 4.9708 13.3601 4.54258C12.4453 3.62774 10.9465 3.62774 10.0316 4.54258L6.2944 8.26034L6.9562 8.92214L10.674 5.20438C11.219 4.65937 12.1338 4.65937 12.6788 5.20438C12.9513 5.47689 13.0876 5.82725 13.0876 6.21655C13.0876 6.58638 12.9319 6.9562 12.6788 7.22871L10.2263 9.64234L7.63747 12.2311L5.80779 14.0608C4.91241 14.9562 3.47202 14.9562 2.57664 14.0608C1.68127 13.1655 1.68127 11.7251 2.57664 10.8297L6.99513 6.41119L7.46229 5.94404L7.92944 5.47689L10.5572 2.84915C11.8029 1.60341 13.8467 1.60341 15.1119 2.84915C15.7153 3.45255 16.0462 4.27007 16.0462 5.12652C16.0462 5.98297 15.7153 6.80049 15.1119 7.40389L7.42336 15.0925L8.08516 15.7543L15.7737 8.06569C16.163 7.6764 16.4745 7.20925 16.6886 6.70316C16.8832 6.19708 17 5.691 17 5.14599C16.9611 4.60097 16.8637 4.07543 16.6691 3.58881Z" />
</svg>
