<svg width="22" height="24" viewBox="0 0 22 24" fill="none" xmlns="http://www.w3.org/2000/svg">
<path d="M1.99999 0H14.7447L21.5 6.72902V22.5C21.5 23.3287 20.828 24 20 24H1.99999C1.17196 24 0.5 23.3287 0.5 22.5V1.49999C0.5 0.671265 1.17204 0 1.99999 0Z" fill="#00A0DE"/>
<path d="M21.4784 6.74964H16.2501C15.4221 6.74964 14.7501 6.07768 14.7501 5.24966V0.0146484L21.4784 6.74964Z" fill="#0066A2"/>
<path d="M6.90764 13.7501H7.18592C7.44601 13.7501 7.64062 13.6991 7.76976 13.5973C7.8989 13.4936 7.96346 13.3436 7.96346 13.1471C7.96346 12.9489 7.9089 12.8025 7.79977 12.7079C7.69246 12.6133 7.52331 12.566 7.29232 12.566H6.90764V13.7501ZM8.8174 13.1171C8.8174 13.5464 8.68281 13.8747 8.41362 14.102C8.14626 14.3294 7.76521 14.443 7.27049 14.443H6.90764V15.8617H6.06189V11.873H7.33597C7.81978 11.873 8.18718 11.9776 8.43818 12.1868C8.69099 12.3941 8.8174 12.7042 8.8174 13.1171Z" fill="white"/>
<path d="M12.8797 13.8292C12.8797 14.4858 12.6924 14.9887 12.3177 15.3379C11.9449 15.6871 11.4056 15.8617 10.6999 15.8617H9.57039V11.873H10.8226C11.4738 11.873 11.9794 12.0449 12.3395 12.3887C12.6997 12.7324 12.8797 13.2126 12.8797 13.8292ZM12.0012 13.851C12.0012 12.9943 11.6229 12.566 10.8663 12.566H10.4161V15.1633H10.779C11.5938 15.1633 12.0012 14.7259 12.0012 13.851Z" fill="white"/>
<path d="M14.5385 15.8617H13.7064V11.873H15.9926V12.566H14.5385V13.5946H15.8917V14.2848H14.5385V15.8617Z" fill="white"/>
</svg>
