<svg width="18" height="18" viewBox="0 0 18 18" fill="none" xmlns="http://www.w3.org/2000/svg">
<path d="M9 18C13.9706 18 18 13.9706 18 9C18 4.02944 13.9706 0 9 0C4.02944 0 0 4.02944 0 9C0 13.9706 4.02944 18 9 18Z" fill="#0B8043"/>
<path d="M5.40569 10.6308C5.20873 10.4798 4.76782 10.1249 4.76782 10.1249L5.89282 8.732C5.89282 8.732 7.30519 9.70583 7.93281 10.1871L11.1874 5.94115C11.3362 5.7471 11.7321 5.19629 11.7321 5.19629C12.2409 5.56456 12.7329 5.93587 13.2321 6.32129L8.24996 12.482C8.24996 12.482 6.36143 11.3619 5.40569 10.6308Z" fill="white"/>
</svg>
