<svg width="26" height="26" viewBox="0 0 26 26" xmlns="http://www.w3.org/2000/svg">
<path d="M13 0C9.21989 0 6.14453 3.07536 6.14453 6.85547C6.14453 10.6356 9.21989 13.7109 13 13.7109C16.7801 13.7109 19.8555 10.6356 19.8555 6.85547C19.8555 3.07536 16.7801 0 13 0ZM13 12.1875C10.0599 12.1875 7.66797 9.79555 7.66797 6.85547C7.66797 3.91539 10.0599 1.52344 13 1.52344C15.9401 1.52344 18.332 3.91539 18.332 6.85547C18.332 9.79555 15.9401 12.1875 13 12.1875Z"/>
<path d="M21.5295 18.1896C19.6526 16.2839 17.1645 15.2344 14.5234 15.2344H11.4766C8.83553 15.2344 6.34735 16.2839 4.47048 18.1896C2.60279 20.086 1.57422 22.5892 1.57422 25.2383C1.57422 25.659 1.91527 26 2.33594 26H23.6641C24.0847 26 24.4258 25.659 24.4258 25.2383C24.4258 22.5892 23.3972 20.086 21.5295 18.1896ZM3.13117 24.4766C3.51279 20.1558 7.10993 16.7578 11.4766 16.7578H14.5234C18.8901 16.7578 22.4872 20.1558 22.8688 24.4766H3.13117Z"/>
</svg>
