<svg width="34" height="46" viewBox="0 0 34 46" fill="none" xmlns="http://www.w3.org/2000/svg">
<path d="M25 11.456H24.7355V4.83315C24.7355 3.81654 24.7355 1 24.7355 1C24.7355 1 21.6545 1 20.5424 1H5.19315C4.08106 0.999999 1 1 1 1C1 1 1 3.81653 1 4.83314V41.1668C1 42.1835 1 45 1 45C1 45 4.08104 45 5.19313 45H20.5424C21.6545 45 24.7355 45 24.7355 45C24.7355 45 24.7355 42.1835 24.7355 41.1669V16.1703H25L25 11.456Z" fill="#0066A2" stroke="#0066A2" stroke-width="2"/>
<path d="M24 4.8623V41.1377C24 41.8968 24 44 24 44C24 44 21.6657 44 20.8231 44H5.17688C4.33432 44 2 44 2 44C2 44 2.00001 41.8968 2 41.1377V4.8623C2.00002 4.10318 2 2 2 2C2 2 4.33432 2.00001 5.17688 2H7.07496V3.87334C7.07496 3.87334 7.94171 3.87299 8.47252 3.87334H17.3933C17.8913 3.87301 18.8902 3.87334 18.8902 3.87334V2H20.8231C21.6657 2.00001 24 2 24 2C24 2 24 4.10318 24 4.8623Z" fill="white"/>
<path d="M27.8721 12.5663H32.4338V17.128H34V11H27.8721V12.5663Z" fill="#0066A2"/>
<path d="M9.56762 17.128V12.5663H14.1293V11H8.00138V17.128H9.56762Z" fill="#0066A2"/>
<path d="M14.1279 35.4337H9.56624V30.872H8V37H14.1279V35.4337Z" fill="#0066A2"/>
<path d="M32.4338 30.872V35.4337H27.8721V37H34V30.872H32.4338Z" fill="#0066A2"/>
<rect x="10.8599" y="13.5618" width="20.4945" height="20.4945" fill="white"/>
<path d="M24.8064 24.9565V29.3636M22.5344 27.2285H27.051" stroke="#E3051C" stroke-width="1.2"/>
<path d="M28.1365 28.38V32.7871M25.8645 30.652H30.3811" stroke="#E3051C" stroke-width="1.2"/>
<path d="M27.2783 25.4337H30.1366V28.4399" stroke="#E3051C" stroke-width="1.2"/>
<path d="M22.897 29.4334V32.2926H25.9032" stroke="#E3051C" stroke-width="1.2"/>
<rect x="12.5254" y="15.1703" width="7.60866" height="7.60866" stroke="#E3051C" stroke-width="1.2"/>
<rect x="22.7604" y="15.1703" width="7.60866" height="7.60866" stroke="#E3051C" stroke-width="1.2"/>
<rect x="12.5254" y="25.2211" width="7.60866" height="7.60866" stroke="#E3051C" stroke-width="1.2"/>
<rect x="14.7717" y="17.4166" width="3.11615" height="3.11615" fill="#E3051C"/>
<rect x="25.0066" y="17.4166" width="3.11615" height="3.11615" fill="#E3051C"/>
<rect x="14.7717" y="27.4674" width="3.11615" height="3.11615" fill="#E3051C"/>
</svg>
