<svg width="32" height="45" viewBox="0 0 32 45" fill="none" xmlns="http://www.w3.org/2000/svg">
<path d="M3.06185 3.70258C2.25008 3.70349 0 3.70258 0 3.70258C0 3.70258 0.000923314 5.93722 0 6.74343V41.7758C0.000931266 42.582 0 44.8166 0 44.8166C0 44.8166 2.25009 44.8157 3.06185 44.8166H28.9382C29.7499 44.8157 32 44.8166 32 44.8166C32 44.8166 31.9991 42.582 32 41.7758V6.74342C31.9991 5.93723 32 3.70258 32 3.70258C32 3.70258 29.7499 3.7035 28.9382 3.70258H3.06185Z" fill="#0066A2"/>
<path d="M30.4078 5.86243H1.59229V42.6568H30.4078V5.86243Z" fill="white"/>
<path d="M27 12H14V13.5H27V12Z" fill="#00A0DE"/>
<path d="M27 15.5H14V17H27V15.5Z" fill="#00A0DE"/>
<path d="M26.6407 19.8627H5.35913V21.3627H26.6407V19.8627Z" fill="#00A0DE"/>
<path d="M26.6407 23.5654H5.35913V25.0654H26.6407V23.5654Z" fill="#00A0DE"/>
<path d="M26.6407 27.2679H5.35913V28.7679H26.6407V27.2679Z" fill="#00A0DE"/>
<path d="M26.6407 30.9705H5.35913V32.4705H26.6407V30.9705Z" fill="#00A0DE"/>
<path d="M26.6407 34.673H5.35913V36.173H26.6407V34.673Z" fill="#00A0DE"/>
<path d="M21.3353 1.92843H18.7961V1.41215C18.7961 1.03763 18.7961 0 18.7961 0C18.7961 0 17.7513 0 17.3742 0H14.6257C14.2486 3.36642e-07 13.2038 0 13.2038 0C13.2038 0 13.2038 1.03763 13.2038 1.41215V1.92843H10.6646C10.2911 1.92843 9.24268 1.92843 9.24268 1.92843C9.24268 1.92843 9.24268 2.96969 9.24268 3.34058V7.25088H22.7572V3.34058C22.7572 2.96969 22.7572 1.92843 22.7572 1.92843C22.7572 1.92843 21.7088 1.92843 21.3353 1.92843Z" fill="#0066A2"/>
<circle opacity="0.1" cx="8.5" cy="15.5" r="3.5" fill="#00A0DE"/>
<g opacity="0.4" clip-path="url(#clip0)">
<path d="M8.5 13.5C7.91845 13.5 7.44531 13.9731 7.44531 14.5547C7.44531 15.1362 7.91845 15.6094 8.5 15.6094C9.08155 15.6094 9.55469 15.1362 9.55469 14.5547C9.55469 13.9731 9.08155 13.5 8.5 13.5ZM8.5 15.375C8.04768 15.375 7.67969 15.007 7.67969 14.5547C7.67969 14.1024 8.04768 13.7344 8.5 13.7344C8.95232 13.7344 9.32031 14.1024 9.32031 14.5547C9.32031 15.007 8.95232 15.375 8.5 15.375Z" fill="#00A0DE"/>
<path d="M8.5 15.375C8.04768 15.375 7.67969 15.007 7.67969 14.5547C7.67969 14.1024 8.04768 13.7344 8.5 13.7344C8.95232 13.7344 9.32031 14.1024 9.32031 14.5547C9.32031 15.007 8.95232 15.375 8.5 15.375Z" fill="#00A0DE"/>
<path d="M9.81223 16.2984C9.52348 16.0052 9.1407 15.8438 8.73438 15.8438H8.26562C7.85931 15.8438 7.47652 16.0052 7.18777 16.2984C6.90043 16.5901 6.74219 16.9753 6.74219 17.3828C6.74219 17.4475 6.79466 17.5 6.85938 17.5H10.1406C10.2053 17.5 10.2578 17.4475 10.2578 17.3828C10.2578 16.9753 10.0996 16.5901 9.81223 16.2984ZM6.98172 17.2656C7.04043 16.6009 7.59384 16.0781 8.26562 16.0781H8.73438C9.40616 16.0781 9.95957 16.6009 10.0183 17.2656H6.98172Z" fill="#00A0DE"/>
<path d="M6.98172 17.2656C7.04043 16.6009 7.59384 16.0781 8.26562 16.0781H8.73438C9.40616 16.0781 9.95957 16.6009 10.0183 17.2656H6.98172Z" fill="#00A0DE"/>
</g>
<defs>
<clipPath id="clip0">
<rect width="4" height="4" fill="white" transform="translate(6.5 13.5)"/>
</clipPath>
</defs>
</svg>
