<svg width="37" height="47" viewBox="0 0 37 47" fill="none" xmlns="http://www.w3.org/2000/svg">
<path d="M3.55715 4.28204C2.71372 4.283 0.375854 4.28204 0.375854 4.28204C0.375854 4.28204 0.376814 6.60387 0.375854 7.44152V43.8405C0.376822 44.6782 0.375854 47 0.375854 47C0.375854 47 2.71372 46.999 3.55715 47H30.4429C31.2864 46.999 33.6242 47 33.6242 47C33.6242 47 33.6232 44.6782 33.6242 43.8405V7.44152C33.6232 6.60387 33.6242 4.28204 33.6242 4.28204C33.6242 4.28204 31.2864 4.283 30.4429 4.28204H3.55715Z" fill="#0066A2"/>
<path d="M31.9698 6.52618H2.03015V44.7559H31.9698V6.52618Z" fill="white"/>
<path d="M28.0559 13.3786H5.94409V14.8212H28.0559V13.3786Z" fill="#00A0DE"/>
<path d="M28.0559 17.2255H5.94409V18.6682H28.0559V17.2255Z" fill="#00A0DE"/>
<path d="M28.0559 21.0726H5.94409V22.5153H28.0559V21.0726Z" fill="#00A0DE"/>
<path d="M28.0559 24.9197H5.94409V26.3623H28.0559V24.9197Z" fill="#00A0DE"/>
<path d="M28.0559 28.7667H5.94409V30.2093H28.0559V28.7667Z" fill="#00A0DE"/>
<path d="M28.0559 32.6137H5.94409V34.0563H28.0559V32.6137Z" fill="#00A0DE"/>
<path d="M28.0559 36.4607H5.94409V37.9033H28.0559V36.4607Z" fill="#00A0DE"/>
<path d="M29.489 14.1C33.355 14.1 36.489 10.966 36.489 7.09998C36.489 3.23398 33.355 0.0999756 29.489 0.0999756C25.623 0.0999756 22.489 3.23398 22.489 7.09998C22.489 10.966 25.623 14.1 29.489 14.1Z" fill="#E3051C"/>
<path d="M33.489 5.6257L28.689 10.1L26.489 8.04927L27.053 7.52354L28.689 9.04479L32.925 5.09998L33.489 5.6257Z" fill="white" stroke="white"/>
</svg>
