<?xml version="1.0" encoding="utf-8"?><svg xmlns="http://www.w3.org/2000/svg" xmlns:xlink="http://www.w3.org/1999/xlink"><symbol viewBox="0 0 33 20" id="burger" xmlns="http://www.w3.org/2000/svg"><path d="M0 1h33M0 10h33M0 19h16.306"/></symbol><symbol fill="none" viewBox="0 0 12 5" id="chevron-down" xmlns="http://www.w3.org/2000/svg"><path d="M12 0H0l6 5 6-5z" fill="#7C7C7B"/></symbol><symbol fill="none" viewBox="0 0 8 12" id="chevron-left" xmlns="http://www.w3.org/2000/svg"><path d="M2 6l-.707-.707L.586 6l.707.707L2 6zm5.707 4.293l-5-5-1.414 1.414 5 5 1.414-1.414zm-5-3.586l5-5L6.293.293l-5 5 1.414 1.414z" fill="#7C7C7B"/></symbol><symbol fill="none" viewBox="0 0 12 14" id="delete" xmlns="http://www.w3.org/2000/svg"><path d="M12 .778H9L8.143 0H3.857L3 .778H0v1.555h12V.778zM.857 12.444C.857 12.857.9 14 .9 14h10.243V3.111H.857v9.333z" fill="#BE1622"/></symbol><symbol viewBox="0 0 24 26" id="logout" xmlns="http://www.w3.org/2000/svg"><path d="M22.53 1.3h.75V.55h-.75v.75zm0 23.4v.75h.75v-.75h-.75zM12 2.05h10.53V.55H12v1.5zm9.78-.75v23.4h1.5V1.3h-1.5zm.75 22.65H12v1.5h10.53v-1.5zM15.51 13l.518.543.569-.543-.57-.543-.517.543zm.518-.543l-4.907-4.68-1.035 1.086 4.906 4.68 1.036-1.086zm-1.036 0l-4.906 4.68 1.035 1.085 4.907-4.68-1.036-1.085zm.518-.207H.3v1.5h15.21v-1.5z"/></symbol><symbol fill="none" viewBox="0 0 17 16" id="next" xmlns="http://www.w3.org/2000/svg"><path d="M.5 6.99v2.02h12.121l-5.555 5.556L8.5 16l8-8-8-8-1.434 1.434L12.62 6.99H.5z" fill="#fff"/></symbol><symbol fill="none" viewBox="0 0 15 15" id="pen" xmlns="http://www.w3.org/2000/svg"><path d="M14.455 3.605L15 3.061 11.939 0l-.544.544-1.502 1.494 3.06 3.06 1.502-1.493zM0 11.94V15h3.06l9.028-9.036-3.06-3.06L0 11.938z" fill="#0066A2"/></symbol><symbol fill="none" viewBox="0 0 14 14" id="plus" xmlns="http://www.w3.org/2000/svg"><path d="M.256 5.975V8.09h5.617v5.622h2.114V8.09h5.616V5.975H7.987V.353H5.873v5.622H.256z" fill="#fff"/></symbol></svg>