<?xml version="1.0" encoding="utf-8"?><svg xmlns="http://www.w3.org/2000/svg" xmlns:xlink="http://www.w3.org/1999/xlink"><symbol fill="none" viewBox="0 0 14 9" id="arrow-down" xmlns="http://www.w3.org/2000/svg"><path d="M1 1l6 6 6-6" stroke="#222" stroke-width="1.5"/></symbol><symbol fill="none" viewBox="0 0 24 12" id="arrow-right" xmlns="http://www.w3.org/2000/svg"><path d="M18 1l5 5m0 0l-5 5m5-5H1"/></symbol><symbol viewBox="0 0 33 20" id="burger" xmlns="http://www.w3.org/2000/svg"><path d="M0 1h33M0 10h33M0 19h16.306"/></symbol><symbol viewBox="0 0 18 18" id="calendar" xmlns="http://www.w3.org/2000/svg"><path d="M18 5.941V3.867c0-.872-.71-1.582-1.582-1.582h-.211V4.22a.527.527 0 01-1.055 0V1.406a.527.527 0 10-1.054 0v.88h-3.516v1.933a.527.527 0 01-1.055 0V1.406a.527.527 0 00-1.054 0v.88H4.957v1.933a.527.527 0 01-1.055 0V1.406a.527.527 0 00-1.054 0v.88H1.582C.71 2.285 0 2.994 0 3.866v2.074h18zM0 6.996v8.543c0 .872.71 1.582 1.582 1.582h14.836c.872 0 1.582-.71 1.582-1.582V6.996H0zm5.063 7.313H3.938a.527.527 0 010-1.055h1.124a.527.527 0 010 1.055zm0-2.25H3.938a.527.527 0 010-1.055h1.124a.527.527 0 010 1.055zm0-2.25H3.938a.527.527 0 010-1.055h1.124a.527.527 0 010 1.055zm4.5 4.5H8.437a.527.527 0 010-1.055h1.126a.527.527 0 010 1.055zm0-2.25H8.437a.527.527 0 010-1.055h1.126a.527.527 0 010 1.055zm0-2.25H8.437a.527.527 0 010-1.055h1.126a.527.527 0 010 1.055zm4.5 4.5h-1.126a.527.527 0 010-1.055h1.126a.527.527 0 010 1.055zm0-2.25h-1.126a.527.527 0 010-1.055h1.126a.527.527 0 010 1.055zm0-2.25h-1.126a.527.527 0 010-1.055h1.126a.527.527 0 010 1.055z"/></symbol><symbol fill="none" viewBox="0 0 12 5" id="chevron-down" xmlns="http://www.w3.org/2000/svg"><path d="M12 0H0l6 5 6-5z" fill="#7C7C7B"/></symbol><symbol fill="none" viewBox="0 0 8 12" id="chevron-left" xmlns="http://www.w3.org/2000/svg"><path d="M2 6l-.707-.707L.586 6l.707.707L2 6zm5.707 4.293l-5-5-1.414 1.414 5 5 1.414-1.414zm-5-3.586l5-5L6.293.293l-5 5 1.414 1.414z" fill="#7C7C7B"/></symbol><symbol viewBox="0 0 10 14" id="chevron-right" xmlns="http://www.w3.org/2000/svg"><path d="M1 1l8 6-8 6"/></symbol><symbol viewBox="0 0 15 15" id="clock" xmlns="http://www.w3.org/2000/svg"><path d="M7.5 0C3.364 0 0 3.364 0 7.5S3.364 15 7.5 15 15 11.636 15 7.5 11.636 0 7.5 0zm3.567 11.38a.623.623 0 01-.884 0L7.058 8.253a.622.622 0 01-.183-.441V3.75a.625.625 0 111.25 0v3.804l2.942 2.942a.624.624 0 010 .883z"/></symbol><symbol viewBox="0 0 17 17" id="close" xmlns="http://www.w3.org/2000/svg"><path d="M1 1l15 15M16 1L1 16"/></symbol><symbol fill="none" viewBox="0 0 20 20" id="close-round" xmlns="http://www.w3.org/2000/svg"><path d="M10 0c5.53 0 10 4.47 10 10s-4.47 10-10 10S0 15.53 0 10 4.47 0 10 0zm3.59 5L10 8.59 6.41 5 5 6.41 8.59 10 5 13.59 6.41 15 10 11.41 13.59 15 15 13.59 11.41 10 15 6.41 13.59 5z" fill="#9A9FA6"/></symbol><symbol fill="none" viewBox="0 0 12 14" id="delete" xmlns="http://www.w3.org/2000/svg"><path d="M12 .778H9L8.143 0H3.857L3 .778H0v1.555h12V.778zM.857 12.444C.857 12.857.9 14 .9 14h10.243V3.111H.857v9.333z" fill="#BE1622"/></symbol><symbol fill="none" viewBox="0 0 12 22" id="facebook" xmlns="http://www.w3.org/2000/svg"><path d="M9.664 3.653h2.008V.155C11.326.107 10.134 0 8.746 0 5.851 0 3.867 1.821 3.867 5.17v3.08H.672v3.91h3.195V22h3.918v-9.839h3.066l.487-3.91H7.784V5.557c0-1.13.305-1.904 1.88-1.904z" fill="#fff"/></symbol><symbol viewBox="0 0 14 18" id="gps" xmlns="http://www.w3.org/2000/svg"><path d="M7 0C3.526 0 .7 2.807.7 6.257.7 10.593 7.006 18 7.006 18S13.3 10.38 13.3 6.257C13.3 2.807 10.474 0 7 0zm1.9 8.089a2.69 2.69 0 01-1.9.78 2.69 2.69 0 01-1.9-.78 2.66 2.66 0 010-3.776A2.68 2.68 0 017 3.531a2.68 2.68 0 011.9.782 2.66 2.66 0 010 3.776z"/></symbol><symbol fill="none" viewBox="0 0 22 22" id="instagram" xmlns="http://www.w3.org/2000/svg"><g clip-path="url(#nclip0)" fill="#fff"><path d="M11.004 5.352a5.644 5.644 0 100 11.29 5.644 5.644 0 005.644-5.646 5.644 5.644 0 00-5.644-5.644zm0 9.308a3.663 3.663 0 113.664-3.664 3.662 3.662 0 01-3.664 3.664z"/><path d="M15.536.07c-2.024-.095-7.038-.09-9.063 0-1.78.083-3.35.513-4.617 1.779C-.259 3.965.011 6.815.011 10.996c0 4.28-.238 7.064 1.845 9.148 2.124 2.123 5.016 1.845 9.148 1.845 4.238 0 5.701.003 7.2-.578 2.038-.79 3.576-2.612 3.726-5.884.096-2.025.09-7.037 0-9.063C21.75 2.602 19.676.26 15.536.07zm3.203 18.674c-1.387 1.387-3.31 1.263-7.762 1.263-4.583 0-6.421.068-7.762-1.277-1.545-1.537-1.265-4.006-1.265-7.748 0-5.065-.52-8.712 4.563-8.973 1.168-.041 1.511-.055 4.451-.055l.041.028c4.885 0 8.718-.512 8.948 4.57.052 1.16.064 1.508.064 4.443 0 4.53.085 6.38-1.278 7.749z"/><path d="M16.872 6.448a1.32 1.32 0 100-2.638 1.32 1.32 0 000 2.638z"/></g><defs><clipPath id="nclip0"><path fill="#fff" d="M0 0h22v22H0z"/></clipPath></defs></symbol><symbol viewBox="0 0 24 26" id="login" xmlns="http://www.w3.org/2000/svg"><path d="M22.53 1.3h.75V.55h-.75v.75zm0 23.4v.75h.75v-.75h-.75zM12 2.05h10.53V.55H12v1.5zm9.78-.75v23.4h1.5V1.3h-1.5zm.75 22.65H12v1.5h10.53v-1.5zM15.51 13l.518.543.569-.543-.57-.543-.517.543zm.518-.543l-4.907-4.68-1.035 1.086 4.906 4.68 1.036-1.086zm-1.036 0l-4.906 4.68 1.035 1.085 4.907-4.68-1.036-1.085zm.518-.207H.3v1.5h15.21v-1.5z"/></symbol><symbol fill="none" viewBox="0 0 20 20" id="logout" xmlns="http://www.w3.org/2000/svg"><path d="M11 1h8.1v18H11M2 10l3.774 3.6M2 10l3.774-3.6M2 10h11.7"/></symbol><symbol fill="none" viewBox="0 0 17 16" id="next" xmlns="http://www.w3.org/2000/svg"><path d="M.5 6.99v2.02h12.121l-5.555 5.556L8.5 16l8-8-8-8-1.434 1.434L12.62 6.99H.5z" fill="#fff"/></symbol><symbol fill="none" viewBox="0 0 22 24" id="pdf" xmlns="http://www.w3.org/2000/svg"><path d="M2 0h12.745L21.5 6.729V22.5A1.5 1.5 0 0120 24H2a1.5 1.5 0 01-1.5-1.5v-21A1.5 1.5 0 012 0z" fill="#00A0DE"/><path d="M21.478 6.75H16.25a1.5 1.5 0 01-1.5-1.5V.015l6.728 6.735z" fill="#0066A2"/><path d="M6.908 13.75h.278c.26 0 .455-.05.584-.153.129-.103.193-.253.193-.45 0-.198-.054-.345-.163-.44-.108-.094-.277-.141-.508-.141h-.384v1.184zm1.91-.633c0 .43-.135.758-.404.985-.268.227-.649.341-1.144.341h-.362v1.419h-.846v-3.989h1.274c.484 0 .851.105 1.102.314.253.207.38.517.38.93zM12.88 13.83c0 .656-.188 1.159-.562 1.508-.373.35-.912.524-1.618.524H9.57v-3.989h1.253c.65 0 1.156.172 1.516.516.36.343.54.824.54 1.44zM12 13.85c0-.857-.378-1.285-1.135-1.285h-.45v2.597h.363c.815 0 1.222-.437 1.222-1.312zM14.539 15.862h-.833v-3.989h2.287v.693h-1.454v1.029h1.353v.69h-1.353v1.577z" fill="#fff"/></symbol><symbol fill="none" viewBox="0 0 15 15" id="pen" xmlns="http://www.w3.org/2000/svg"><path d="M14.455 3.605L15 3.061 11.939 0l-.544.544-1.502 1.494 3.06 3.06 1.502-1.493zM0 11.94V15h3.06l9.028-9.036-3.06-3.06L0 11.938z" fill="#0066A2"/></symbol><symbol fill="none" viewBox="0 0 14 14" id="plus" xmlns="http://www.w3.org/2000/svg"><path d="M.256 5.975V8.09h5.617v5.622h2.114V8.09h5.616V5.975H7.987V.353H5.873v5.622H.256z" fill="#fff"/></symbol><symbol viewBox="0 0 20 20" id="search" xmlns="http://www.w3.org/2000/svg"><g clip-path="url(#uclip0)"><path d="M8.808 0C3.95 0 0 3.951 0 8.808c0 4.856 3.951 8.807 8.808 8.807 4.856 0 8.807-3.95 8.807-8.807S13.665 0 8.808 0zm0 15.99c-3.96 0-7.182-3.223-7.182-7.182 0-3.96 3.222-7.182 7.182-7.182 3.96 0 7.181 3.222 7.181 7.182 0 3.96-3.222 7.181-7.181 7.181z"/><path d="M19.762 18.612L15.1 13.951a.813.813 0 10-1.15 1.15l4.662 4.66a.81.81 0 001.15 0 .813.813 0 000-1.149z"/></g><defs><clipPath id="uclip0"><path fill="#fff" d="M0 0h20v20H0z"/></clipPath></defs></symbol><symbol viewBox="0 0 26 26" id="user" xmlns="http://www.w3.org/2000/svg"><path d="M13 0a6.863 6.863 0 00-6.855 6.855A6.863 6.863 0 0013 13.711a6.863 6.863 0 006.855-6.856A6.863 6.863 0 0013 0zm0 12.188a5.338 5.338 0 01-5.332-5.333A5.338 5.338 0 0113 1.523a5.338 5.338 0 015.332 5.332A5.338 5.338 0 0113 12.187zM21.53 18.19c-1.877-1.906-4.366-2.956-7.007-2.956h-3.046c-2.641 0-5.13 1.05-7.007 2.956a9.99 9.99 0 00-2.896 7.048c0 .421.341.762.762.762h21.328c.42 0 .762-.341.762-.762a9.99 9.99 0 00-2.896-7.048zM3.13 24.477c.382-4.321 3.979-7.72 8.346-7.72h3.046c4.367 0 7.964 3.399 8.346 7.72H3.13z"/></symbol><symbol fill="none" viewBox="0 0 22 14" id="vk" xmlns="http://www.w3.org/2000/svg"><path d="M18.255 7.942c-.355-.449-.253-.649 0-1.05.005-.005 2.941-4.062 3.244-5.438h.001c.15-.502 0-.87-.727-.87h-2.405c-.612 0-.894.316-1.046.67 0 0-1.224 2.931-2.957 4.831-.56.55-.818.725-1.123.725-.15 0-.384-.176-.384-.677v-4.68c0-.6-.171-.87-.678-.87H8.398c-.384 0-.613.281-.613.542 0 .57.867.702.956 2.306v3.48c0 .763-.138.903-.445.903-.818 0-2.802-2.943-3.978-6.312C4.08.848 3.848.584 3.23.584H.825C.138.584 0 .901 0 1.254c0 .626.818 3.734 3.802 7.84 1.99 2.804 4.79 4.323 7.34 4.323 1.53 0 1.718-.338 1.718-.918 0-2.678-.138-2.931.629-2.931.355 0 .968.176 2.398 1.528 1.634 1.603 1.903 2.32 2.818 2.32h2.405c.686 0 1.033-.337.833-1.002-.457-1.4-3.548-4.279-3.688-4.471z" fill="#fff"/></symbol></svg>