<svg width="267" height="55" viewBox="0 0 267 55" fill="none" xmlns="http://www.w3.org/2000/svg">
<path d="M126.343 37.8251L121.219 28.7947V41.1008H118.127V24.6336H122.103L126.697 32.5131L131.291 24.6336H135.267V41.1008H132.175V28.7947L127.05 37.8251H126.343Z" fill="#0067A2"/>
<path d="M149.492 34.0181H143.837V38.3563H150.287V41.1008H140.745V24.6336H150.022V27.3781H143.837V31.1851H149.492V34.0181Z" fill="#0067A2"/>
<path d="M167.957 24.6336V38.3563H170.166L169.636 45.2619H167.25V41.1008H155.853V45.2619H153.467L152.937 38.3563H154.793C157.355 35.3461 157.708 31.7163 157.885 24.6336H167.957ZM164.953 27.4667H160.624C160.447 32.6016 159.829 36.143 158.062 38.3563H164.953V27.4667Z" fill="#0067A2"/>
<path d="M174.407 24.6336H177.499V34.9035L186.776 24.6336H188.455V41.1008H185.362V30.8309L176.085 41.1008H174.407V24.6336Z" fill="#0067A2"/>
<path d="M209.924 38.3563L209.394 45.2619H207.008V41.1008H193.932V24.6336H197.025V38.3563H204.711V24.6336H207.804V38.3563H209.924Z" fill="#0067A2"/>
<path d="M214.254 24.6336H217.346V34.9035L226.623 24.6336H228.302V41.1008H225.21V30.8309L215.933 41.1008H214.254V24.6336Z" fill="#0067A2"/>
<path d="M244.47 41.1008V34.0181H236.784V41.1008H233.691V24.6336H236.784V31.1851H244.47V24.6336H247.563V41.1008H244.47Z" fill="#0067A2"/>
<path d="M262.406 37.9127H255.779L254.454 41.1H251.273L258.783 24.19H259.49L267 41.1H263.819L262.406 37.9127ZM256.84 35.4338H261.257L259.048 30.2988L256.84 35.4338Z" fill="#0067A2"/>
<path d="M3.00396 41.101H0V24.7223H5.38948C8.3051 24.7223 11.044 26.493 11.044 29.9458C11.044 33.5756 8.3051 35.1693 5.38948 35.1693H3.09232V41.101H3.00396ZM3.00396 32.6018H4.68267C6.71477 32.6018 7.775 31.6279 7.775 29.8572C7.775 28.0866 6.71477 27.2012 4.68267 27.2012H3.00396V32.6018Z" fill="#E3051C"/>
<path d="M31.8066 41.0995C30.0396 37.8237 28.9794 35.9645 26.6822 34.0168H25.9754V41.0995H22.9714V34.0168H22.1762C19.7907 35.9645 18.8189 37.8237 17.0518 41.0995H13.2527C15.7265 36.8499 17.1402 34.548 19.5257 32.6003L13.5178 24.7208H17.2285L22.1762 31.2722H22.8831V24.7208H25.887V31.2722H26.5939L31.5416 24.7208H35.2523L29.2444 32.6003C31.6299 34.548 33.0436 36.8499 35.5174 41.0995H31.8066Z" fill="#E3051C"/>
<path d="M52.3928 24.6327V38.2668H54.6016L54.0715 45.1725H51.6859V41.0999H40.2885V45.261H37.903L37.3729 38.3554H39.2283C41.7905 35.3452 42.1439 31.7154 42.3206 24.7212H52.3928V24.6327ZM49.3005 27.4657H44.9712C44.7945 32.6007 44.176 36.142 42.409 38.3554H49.3005V27.4657Z" fill="#E3051C"/>
<path d="M93.4764 12.327V17.3735C99.2193 17.9932 104.432 19.9409 106.818 22.0657C112.03 18.1703 110.617 10.7334 110.44 10.2022C109.998 9.58251 109.556 8.87423 109.026 8.25449C100.368 -1.57274 80.842 0.109413 80.842 0.109413C80.842 0.109413 80.842 6.1297 80.842 11.1761C82.2557 10.9105 83.7577 10.7334 85.2596 10.7334C88.1753 10.7334 90.9142 11.3532 93.4764 12.327Z" fill="url(#paint0_linear)"/>
<path d="M89.8537 33.3093L88.2634 28.0858L85.4361 37.6474C85.3478 38.0901 84.906 38.3557 84.4643 38.4442C84.4643 38.4442 84.4642 38.4442 84.3759 38.4442C83.9341 38.4442 83.5807 38.1786 83.404 37.8245L80.8418 31.4501C80.8418 31.4501 79.6932 32.9552 79.5165 33.2208C79.2515 33.4864 79.0748 33.752 78.7214 33.752H63.2598C63.3481 36.3194 63.8782 38.7984 64.8501 41.1002H77.131V53.4064C79.6933 54.3803 82.4322 55 85.3478 55C88.2634 55 91.0023 54.4688 93.5645 53.4064V41.1002C93.5645 41.1002 98.5122 40.7461 101.958 39.064C107.701 36.2309 109.291 31.3615 109.291 29.5023C102.753 34.8143 90.9139 34.0175 90.9139 34.0175C90.3838 34.0175 89.9421 33.752 89.8537 33.3093Z" fill="url(#paint1_linear)"/>
<path d="M80.135 28.4406C80.3117 28.0865 80.4884 27.9094 80.9302 27.9094C81.3719 27.9094 81.5486 28.3521 81.7253 28.7062L83.9341 33.1329L87.0265 23.9254C87.1148 23.4828 87.5566 23.1286 87.9983 23.1286C88.4401 23.1286 88.8819 23.3942 88.9702 23.8369L91.5324 32.0705C91.5324 32.0705 96.7452 32.7788 103.813 30.7425C109.38 29.1489 111.765 25.2534 112.737 21.2694C114.327 14.6294 110.616 10.1142 110.616 10.1142C110.616 10.1142 112.737 19.3217 105.492 23.0401C101.693 24.9878 93.5645 24.7222 93.5645 24.7222V12.416C91.0023 11.4422 88.2634 10.8224 85.3478 10.8224C82.4322 10.8224 79.6933 11.3536 77.131 12.416V24.7222H64.8501C63.9666 27.0241 63.3481 29.503 63.2598 32.159H78.1029L80.135 28.4406Z" fill="url(#paint2_linear)"/>
<defs>
<linearGradient id="paint0_linear" x1="80.8492" y1="11.053" x2="112.681" y2="11.053" gradientUnits="userSpaceOnUse">
<stop offset="0.1667" stop-color="white"/>
<stop offset="0.4398" stop-color="#DFEDFB"/>
<stop offset="1" stop-color="#86C3EC"/>
</linearGradient>
<linearGradient id="paint1_linear" x1="86.2232" y1="54.9855" x2="86.2232" y2="28.1" gradientUnits="userSpaceOnUse">
<stop offset="0.0430108" stop-color="#BE1622"/>
<stop offset="0.1396" stop-color="#C91320"/>
<stop offset="0.3204" stop-color="#D80D1E"/>
<stop offset="0.5325" stop-color="#E1071D"/>
<stop offset="0.8495" stop-color="#E3051C"/>
</linearGradient>
<linearGradient id="paint2_linear" x1="88.1414" y1="33.1593" x2="88.1414" y2="10.1424" gradientUnits="userSpaceOnUse">
<stop stop-color="#00A0DE"/>
<stop offset="0.0931696" stop-color="#0095D2"/>
<stop offset="0.3865" stop-color="#0077B3"/>
<stop offset="0.5591" stop-color="#006EA9"/>
<stop offset="1" stop-color="#0067A2"/>
</linearGradient>
</defs>
</svg>
