<svg width="167" height="167" viewBox="0 0 167 167" fill="none" xmlns="http://www.w3.org/2000/svg">
<path d="M8.68747 0.8125H0.812469V8.6875H8.68747V0.8125Z" fill="#0066A2"/>
<path d="M16.5625 0.8125H8.68747V8.6875H16.5625V0.8125Z" fill="#0066A2"/>
<path d="M24.4375 0.8125H16.5625V8.6875H24.4375V0.8125Z" fill="#0066A2"/>
<path d="M32.3125 0.8125H24.4375V8.6875H32.3125V0.8125Z" fill="#0066A2"/>
<path d="M40.1875 0.8125H32.3125V8.6875H40.1875V0.8125Z" fill="#0066A2"/>
<path d="M48.0625 0.8125H40.1875V8.6875H48.0625V0.8125Z" fill="#0066A2"/>
<path d="M55.9375 0.8125H48.0625V8.6875H55.9375V0.8125Z" fill="#0066A2"/>
<path d="M71.6875 0.8125H63.8125V8.6875H71.6875V0.8125Z" fill="#0066A2"/>
<path d="M87.4375 0.8125H79.5625V8.6875H87.4375V0.8125Z" fill="#0066A2"/>
<path d="M95.3125 0.8125H87.4375V8.6875H95.3125V0.8125Z" fill="#0066A2"/>
<path d="M118.937 0.8125H111.062V8.6875H118.937V0.8125Z" fill="#0066A2"/>
<path d="M126.812 0.8125H118.937V8.6875H126.812V0.8125Z" fill="#0066A2"/>
<path d="M134.687 0.8125H126.812V8.6875H134.687V0.8125Z" fill="#0066A2"/>
<path d="M142.562 0.8125H134.687V8.6875H142.562V0.8125Z" fill="#0066A2"/>
<path d="M150.437 0.8125H142.562V8.6875H150.437V0.8125Z" fill="#0066A2"/>
<path d="M158.312 0.8125H150.437V8.6875H158.312V0.8125Z" fill="#0066A2"/>
<path d="M166.187 0.8125H158.312V8.6875H166.187V0.8125Z" fill="#0066A2"/>
<path d="M8.68747 8.6875H0.812469V16.5625H8.68747V8.6875Z" fill="#0066A2"/>
<path d="M55.9375 8.6875H48.0625V16.5625H55.9375V8.6875Z" fill="#0066A2"/>
<path d="M79.5625 8.6875H71.6875L71.6875 16.5625H79.5625L79.5625 8.6875Z" fill="#0066A2"/>
<path d="M95.3125 8.6875H87.4375L87.4375 16.5625H95.3125V8.6875Z" fill="#0066A2"/>
<path d="M118.937 8.6875H111.062V16.5625H118.937V8.6875Z" fill="#0066A2"/>
<path d="M166.187 8.6875H158.312V16.5625H166.187V8.6875Z" fill="#0066A2"/>
<path d="M8.68747 16.5625H0.812469V24.4375H8.68747V16.5625Z" fill="#0066A2"/>
<path d="M24.4375 16.5625H16.5625V24.4375H24.4375V16.5625Z" fill="#0066A2"/>
<path d="M32.3125 16.5625H24.4375V24.4375H32.3125V16.5625Z" fill="#0066A2"/>
<path d="M40.1875 16.5625H32.3125V24.4375H40.1875V16.5625Z" fill="#0066A2"/>
<path d="M55.9375 16.5625H48.0625V24.4375H55.9375V16.5625Z" fill="#0066A2"/>
<path d="M71.6875 16.5625H63.8125V24.4375H71.6875L71.6875 16.5625Z" fill="#0066A2"/>
<path d="M79.5625 16.5625H71.6875L71.6875 24.4375H79.5625V16.5625Z" fill="#0066A2"/>
<path d="M87.4375 16.5625H79.5625V24.4375H87.4375L87.4375 16.5625Z" fill="#0066A2"/>
<path d="M118.937 16.5625H111.062V24.4375H118.937V16.5625Z" fill="#0066A2"/>
<path d="M134.687 16.5625H126.812V24.4375H134.687V16.5625Z" fill="#0066A2"/>
<path d="M142.562 16.5625H134.687V24.4375H142.562V16.5625Z" fill="#0066A2"/>
<path d="M150.437 16.5625H142.562V24.4375H150.437V16.5625Z" fill="#0066A2"/>
<path d="M166.187 16.5625H158.312V24.4375H166.187V16.5625Z" fill="#0066A2"/>
<path d="M8.68747 24.4375H0.812469V32.3125H8.68747V24.4375Z" fill="#0066A2"/>
<path d="M24.4375 24.4375H16.5625V32.3125H24.4375V24.4375Z" fill="#0066A2"/>
<path d="M32.3125 24.4375H24.4375V32.3125H32.3125V24.4375Z" fill="#0066A2"/>
<path d="M40.1875 24.4375H32.3125V32.3125H40.1875V24.4375Z" fill="#0066A2"/>
<path d="M55.9375 24.4375H48.0625V32.3125H55.9375V24.4375Z" fill="#0066A2"/>
<path d="M71.6875 24.4375H63.8125V32.3125H71.6875V24.4375Z" fill="#0066A2"/>
<path d="M79.5625 24.4375H71.6875V32.3125H79.5625V24.4375Z" fill="#0066A2"/>
<path d="M87.4375 24.4375H79.5625V32.3125H87.4375V24.4375Z" fill="#0066A2"/>
<path d="M95.3125 24.4375H87.4375V32.3125H95.3125V24.4375Z" fill="#0066A2"/>
<path d="M118.937 24.4375H111.062V32.3125H118.937V24.4375Z" fill="#0066A2"/>
<path d="M134.687 24.4375H126.812V32.3125H134.687V24.4375Z" fill="#0066A2"/>
<path d="M142.562 24.4375H134.687V32.3125H142.562V24.4375Z" fill="#0066A2"/>
<path d="M150.437 24.4375H142.562V32.3125H150.437V24.4375Z" fill="#0066A2"/>
<path d="M166.187 24.4375H158.312V32.3125H166.187V24.4375Z" fill="#0066A2"/>
<path d="M8.68747 32.3125H0.812469V40.1875H8.68747V32.3125Z" fill="#0066A2"/>
<path d="M24.4375 32.3125H16.5625V40.1875H24.4375V32.3125Z" fill="#0066A2"/>
<path d="M32.3125 32.3125H24.4375V40.1875H32.3125V32.3125Z" fill="#0066A2"/>
<path d="M40.1875 32.3125H32.3125V40.1875H40.1875V32.3125Z" fill="#0066A2"/>
<path d="M55.9375 32.3125H48.0625V40.1875H55.9375V32.3125Z" fill="#0066A2"/>
<path d="M71.6875 32.3125H63.8125V40.1875H71.6875V32.3125Z" fill="#0066A2"/>
<path d="M95.3125 32.3125H87.4375L87.4375 40.1875H95.3125V32.3125Z" fill="#0066A2"/>
<path d="M118.937 32.3125H111.062V40.1875H118.937V32.3125Z" fill="#0066A2"/>
<path d="M134.687 32.3125H126.812V40.1875H134.687V32.3125Z" fill="#0066A2"/>
<path d="M142.562 32.3125H134.687V40.1875H142.562V32.3125Z" fill="#0066A2"/>
<path d="M150.437 32.3125H142.562V40.1875H150.437V32.3125Z" fill="#0066A2"/>
<path d="M166.187 32.3125H158.312V40.1875H166.187V32.3125Z" fill="#0066A2"/>
<path d="M8.68747 40.1875H0.812469V48.0625H8.68747V40.1875Z" fill="#0066A2"/>
<path d="M55.9375 40.1875H48.0625V48.0625H55.9375V40.1875Z" fill="#0066A2"/>
<path d="M71.6875 40.1875H63.8125V48.0625H71.6875V40.1875Z" fill="#0066A2"/>
<path d="M87.4375 40.1875H79.5625V48.0625H87.4375L87.4375 40.1875Z" fill="#0066A2"/>
<path d="M95.3125 40.1875H87.4375L87.4375 48.0625H95.3125V40.1875Z" fill="#0066A2"/>
<path d="M103.187 40.1875H95.3125V48.0625H103.187V40.1875Z" fill="#0066A2"/>
<path d="M118.937 40.1875H111.062V48.0625H118.937V40.1875Z" fill="#0066A2"/>
<path d="M166.187 40.1875H158.312V48.0625H166.187V40.1875Z" fill="#0066A2"/>
<path d="M8.68747 48.0625H0.812469V55.9375H8.68747V48.0625Z" fill="#0066A2"/>
<path d="M16.5625 48.0625H8.68747V55.9375H16.5625V48.0625Z" fill="#0066A2"/>
<path d="M24.4375 48.0625H16.5625V55.9375H24.4375V48.0625Z" fill="#0066A2"/>
<path d="M32.3125 48.0625H24.4375V55.9375H32.3125V48.0625Z" fill="#0066A2"/>
<path d="M40.1875 48.0625H32.3125V55.9375H40.1875V48.0625Z" fill="#0066A2"/>
<path d="M48.0625 48.0625H40.1875V55.9375H48.0625V48.0625Z" fill="#0066A2"/>
<path d="M55.9375 48.0625H48.0625V55.9375H55.9375V48.0625Z" fill="#0066A2"/>
<path d="M71.6875 48.0625H63.8125V55.9375H71.6875V48.0625Z" fill="#0066A2"/>
<path d="M87.4375 48.0625H79.5625V55.9375H87.4375V48.0625Z" fill="#0066A2"/>
<path d="M103.187 48.0625H95.3125V55.9375H103.187V48.0625Z" fill="#0066A2"/>
<path d="M118.937 48.0625H111.062V55.9375H118.937V48.0625Z" fill="#0066A2"/>
<path d="M126.812 48.0625H118.937V55.9375H126.812V48.0625Z" fill="#0066A2"/>
<path d="M134.687 48.0625H126.812V55.9375H134.687V48.0625Z" fill="#0066A2"/>
<path d="M142.562 48.0625H134.687V55.9375H142.562V48.0625Z" fill="#0066A2"/>
<path d="M150.437 48.0625H142.562V55.9375H150.437V48.0625Z" fill="#0066A2"/>
<path d="M158.312 48.0625H150.437V55.9375H158.312V48.0625Z" fill="#0066A2"/>
<path d="M166.187 48.0625H158.312V55.9375H166.187V48.0625Z" fill="#0066A2"/>
<path d="M103.187 55.9375H95.3125V63.8125H103.187V55.9375Z" fill="#0066A2"/>
<path d="M24.4375 63.8125H16.5625V71.6875H24.4375V63.8125Z" fill="#0066A2"/>
<path d="M32.3125 63.8125H24.4375V71.6875H32.3125V63.8125Z" fill="#0066A2"/>
<path d="M40.1875 63.8125H32.3125V71.6875H40.1875V63.8125Z" fill="#0066A2"/>
<path d="M48.0625 63.8125H40.1875V71.6875H48.0625V63.8125Z" fill="#0066A2"/>
<path d="M55.9375 63.8125H48.0625V71.6875H55.9375V63.8125Z" fill="#0066A2"/>
<path d="M63.8125 63.8125H55.9375V71.6875H63.8125V63.8125Z" fill="#0066A2"/>
<path d="M79.5625 63.8125H71.6875V71.6875H79.5625V63.8125Z" fill="#0066A2"/>
<path d="M95.3125 63.8125L87.4375 63.8125V71.6875H95.3125V63.8125Z" fill="#0066A2"/>
<path d="M111.062 63.8125L103.187 63.8125V71.6875H111.062V63.8125Z" fill="#0066A2"/>
<path d="M126.812 63.8125H118.937V71.6875H126.812V63.8125Z" fill="#0066A2"/>
<path d="M134.687 63.8125H126.812V71.6875H134.687V63.8125Z" fill="#0066A2"/>
<path d="M142.562 63.8125H134.687V71.6875H142.562V63.8125Z" fill="#0066A2"/>
<path d="M150.437 63.8125H142.562V71.6875H150.437V63.8125Z" fill="#0066A2"/>
<path d="M166.187 63.8125H158.312V71.6875H166.187V63.8125Z" fill="#0066A2"/>
<path d="M16.5625 71.6875H8.68747V79.5625H16.5625V71.6875Z" fill="#0066A2"/>
<path d="M40.1875 71.6875H32.3125V79.5625H40.1875V71.6875Z" fill="#0066A2"/>
<path d="M48.0625 71.6875H40.1875V79.5625H48.0625V71.6875Z" fill="#0066A2"/>
<path d="M71.6875 71.6875H63.8125L63.8125 79.5625H71.6875L71.6875 71.6875Z" fill="#0066A2"/>
<path d="M79.5625 71.6875H71.6875L71.6875 79.5625H79.5625V71.6875Z" fill="#0066A2"/>
<path d="M103.187 71.6875H95.3125V79.5625H103.187V71.6875Z" fill="#0066A2"/>
<path d="M118.937 71.6875H111.062V79.5625H118.937V71.6875Z" fill="#0066A2"/>
<path d="M150.437 71.6875H142.562V79.5625H150.437V71.6875Z" fill="#0066A2"/>
<path d="M16.5625 79.5625H8.68747V87.4375H16.5625V79.5625Z" fill="#0066A2"/>
<path d="M24.4375 79.5625L16.5625 79.5625V87.4375H24.4375V79.5625Z" fill="#0066A2"/>
<path d="M40.1875 79.5625H32.3125V87.4375H40.1875V79.5625Z" fill="#0066A2"/>
<path d="M55.9375 79.5625L48.0625 79.5625V87.4375H55.9375V79.5625Z" fill="#0066A2"/>
<path d="M63.8125 79.5625L55.9375 79.5625V87.4375H63.8125L63.8125 79.5625Z" fill="#0066A2"/>
<path d="M71.6875 79.5625H63.8125L63.8125 87.4375H71.6875V79.5625Z" fill="#0066A2"/>
<path d="M79.5625 79.5625H71.6875V87.4375H79.5625V79.5625Z" fill="#0066A2"/>
<path d="M87.4375 79.5625L79.5625 79.5625V87.4375H87.4375V79.5625Z" fill="#0066A2"/>
<path d="M134.687 79.5625H126.812V87.4375H134.687V79.5625Z" fill="#0066A2"/>
<path d="M150.437 79.5625H142.562V87.4375H150.437V79.5625Z" fill="#0066A2"/>
<path d="M166.187 79.5625H158.312V87.4375H166.187V79.5625Z" fill="#0066A2"/>
<path d="M8.68747 87.4375H0.812469V95.3125H8.68747V87.4375Z" fill="#0066A2"/>
<path d="M32.3125 87.4375H24.4375V95.3125H32.3125V87.4375Z" fill="#0066A2"/>
<path d="M48.0625 87.4375H40.1875V95.3125H48.0625V87.4375Z" fill="#0066A2"/>
<path d="M71.6875 87.4375H63.8125L63.8125 95.3125H71.6875V87.4375Z" fill="#0066A2"/>
<path d="M79.5625 87.4375H71.6875V95.3125H79.5625V87.4375Z" fill="#0066A2"/>
<path d="M95.3125 87.4375H87.4375L87.4375 95.3125H95.3125V87.4375Z" fill="#0066A2"/>
<path d="M118.937 87.4375H111.062V95.3125H118.937V87.4375Z" fill="#0066A2"/>
<path d="M134.687 87.4375H126.812V95.3125H134.687V87.4375Z" fill="#0066A2"/>
<path d="M142.562 87.4375H134.687V95.3125H142.562V87.4375Z" fill="#0066A2"/>
<path d="M158.312 87.4375H150.437V95.3125H158.312V87.4375Z" fill="#0066A2"/>
<path d="M16.5625 95.3125H8.68747V103.187H16.5625V95.3125Z" fill="#0066A2"/>
<path d="M32.3125 95.3125H24.4375V103.187H32.3125V95.3125Z" fill="#0066A2"/>
<path d="M40.1875 95.3125H32.3125V103.187H40.1875V95.3125Z" fill="#0066A2"/>
<path d="M55.9375 95.3125H48.0625V103.187H55.9375V95.3125Z" fill="#0066A2"/>
<path d="M79.5625 95.3125H71.6875L71.6875 103.187H79.5625V95.3125Z" fill="#0066A2"/>
<path d="M87.4375 95.3125H79.5625V103.187H87.4375L87.4375 95.3125Z" fill="#0066A2"/>
<path d="M95.3125 95.3125H87.4375L87.4375 103.187H95.3125V95.3125Z" fill="#0066A2"/>
<path d="M103.187 95.3125H95.3125V103.187H103.187V95.3125Z" fill="#0066A2"/>
<path d="M111.062 95.3125H103.187V103.187H111.062V95.3125Z" fill="#0066A2"/>
<path d="M142.562 95.3125H134.687V103.187H142.562V95.3125Z" fill="#0066A2"/>
<path d="M150.437 95.3125H142.562V103.187H150.437V95.3125Z" fill="#0066A2"/>
<path d="M158.312 95.3125H150.437V103.187H158.312V95.3125Z" fill="#0066A2"/>
<path d="M166.187 95.3125H158.312V103.187H166.187V95.3125Z" fill="#0066A2"/>
<path d="M79.5625 103.187H71.6875V111.062H79.5625V103.187Z" fill="#0066A2"/>
<path d="M95.3125 103.187H87.4375L87.4375 111.062H95.3125V103.187Z" fill="#0066A2"/>
<path d="M118.937 103.187H111.062V111.062H118.937V103.187Z" fill="#0066A2"/>
<path d="M134.687 103.187H126.812V111.062H134.687V103.187Z" fill="#0066A2"/>
<path d="M142.562 103.187H134.687V111.062H142.562V103.187Z" fill="#0066A2"/>
<path d="M158.312 103.187H150.437V111.062H158.312V103.187Z" fill="#0066A2"/>
<path d="M8.68747 111.062H0.812469V118.937H8.68747V111.062Z" fill="#0066A2"/>
<path d="M16.5625 111.062H8.68747V118.937H16.5625V111.062Z" fill="#0066A2"/>
<path d="M24.4375 111.062H16.5625V118.937H24.4375V111.062Z" fill="#0066A2"/>
<path d="M32.3125 111.062H24.4375V118.937H32.3125V111.062Z" fill="#0066A2"/>
<path d="M40.1875 111.062H32.3125V118.937H40.1875V111.062Z" fill="#0066A2"/>
<path d="M48.0625 111.062H40.1875V118.937H48.0625V111.062Z" fill="#0066A2"/>
<path d="M55.9375 111.062H48.0625V118.937H55.9375V111.062Z" fill="#0066A2"/>
<path d="M71.6875 111.062H63.8125V118.937H71.6875L71.6875 111.062Z" fill="#0066A2"/>
<path d="M79.5625 111.062H71.6875L71.6875 118.937H79.5625V111.062Z" fill="#0066A2"/>
<path d="M87.4375 111.062H79.5625V118.937H87.4375L87.4375 111.062Z" fill="#0066A2"/>
<path d="M95.3125 111.062H87.4375L87.4375 118.937H95.3125V111.062Z" fill="#0066A2"/>
<path d="M142.562 111.062H134.687V118.937H142.562V111.062Z" fill="#0066A2"/>
<path d="M150.437 111.062H142.562V118.937H150.437V111.062Z" fill="#0066A2"/>
<path d="M158.312 111.062H150.437V118.937H158.312V111.062Z" fill="#0066A2"/>
<path d="M8.68747 118.937H0.812469V126.812H8.68747V118.937Z" fill="#0066A2"/>
<path d="M55.9375 118.937H48.0625V126.812H55.9375V118.937Z" fill="#0066A2"/>
<path d="M71.6875 118.937H63.8125V126.812H71.6875V118.937Z" fill="#0066A2"/>
<path d="M87.4375 118.937H79.5625L79.5625 126.812H87.4375V118.937Z" fill="#0066A2"/>
<path d="M103.187 118.937H95.3125V126.812H103.187V118.937Z" fill="#0066A2"/>
<path d="M111.062 118.937H103.187V126.812H111.062V118.937Z" fill="#0066A2"/>
<path d="M126.812 118.937H118.937V126.812H126.812V118.937Z" fill="#0066A2"/>
<path d="M150.437 118.937H142.562V126.812H150.437V118.937Z" fill="#0066A2"/>
<path d="M166.187 118.937H158.312V126.812H166.187V118.937Z" fill="#0066A2"/>
<path d="M8.68747 126.812H0.812469V134.687H8.68747V126.812Z" fill="#0066A2"/>
<path d="M24.4375 126.812H16.5625V134.687H24.4375V126.812Z" fill="#0066A2"/>
<path d="M32.3125 126.812H24.4375V134.687H32.3125V126.812Z" fill="#0066A2"/>
<path d="M40.1875 126.812H32.3125V134.687H40.1875V126.812Z" fill="#0066A2"/>
<path d="M55.9375 126.812H48.0625V134.687H55.9375V126.812Z" fill="#0066A2"/>
<path d="M71.6875 126.812H63.8125V134.687H71.6875V126.812Z" fill="#0066A2"/>
<path d="M118.937 126.812H111.062V134.687H118.937V126.812Z" fill="#0066A2"/>
<path d="M126.812 126.812H118.937V134.687H126.812V126.812Z" fill="#0066A2"/>
<path d="M134.687 126.812H126.812V134.687H134.687V126.812Z" fill="#0066A2"/>
<path d="M8.68747 134.687H0.812469V142.562H8.68747V134.687Z" fill="#0066A2"/>
<path d="M24.4375 134.687H16.5625V142.562H24.4375V134.687Z" fill="#0066A2"/>
<path d="M32.3125 134.687H24.4375V142.562H32.3125V134.687Z" fill="#0066A2"/>
<path d="M40.1875 134.687H32.3125V142.562H40.1875V134.687Z" fill="#0066A2"/>
<path d="M55.9375 134.687H48.0625V142.562H55.9375V134.687Z" fill="#0066A2"/>
<path d="M71.6875 134.687H63.8125V142.562H71.6875V134.687Z" fill="#0066A2"/>
<path d="M79.5625 134.687H71.6875V142.562H79.5625V134.687Z" fill="#0066A2"/>
<path d="M103.187 134.687H95.3125V142.562H103.187V134.687Z" fill="#0066A2"/>
<path d="M111.062 134.687H103.187V142.562H111.062V134.687Z" fill="#0066A2"/>
<path d="M142.562 134.687H134.687V142.562H142.562V134.687Z" fill="#0066A2"/>
<path d="M158.312 134.687H150.437V142.562H158.312V134.687Z" fill="#0066A2"/>
<path d="M8.68747 142.562H0.812469V150.437H8.68747V142.562Z" fill="#0066A2"/>
<path d="M24.4375 142.562H16.5625V150.437H24.4375V142.562Z" fill="#0066A2"/>
<path d="M32.3125 142.562H24.4375V150.437H32.3125V142.562Z" fill="#0066A2"/>
<path d="M40.1875 142.562H32.3125V150.437H40.1875V142.562Z" fill="#0066A2"/>
<path d="M55.9375 142.562H48.0625V150.437H55.9375V142.562Z" fill="#0066A2"/>
<path d="M71.6875 142.562H63.8125V150.437H71.6875V142.562Z" fill="#0066A2"/>
<path d="M79.5625 142.562H71.6875V150.437H79.5625V142.562Z" fill="#0066A2"/>
<path d="M95.3125 142.562H87.4375V150.437H95.3125V142.562Z" fill="#0066A2"/>
<path d="M111.062 142.562H103.187V150.437H111.062V142.562Z" fill="#0066A2"/>
<path d="M126.812 142.562H118.937V150.437H126.812V142.562Z" fill="#0066A2"/>
<path d="M134.687 142.562H126.812V150.437H134.687V142.562Z" fill="#0066A2"/>
<path d="M166.187 142.562H158.312V150.437H166.187V142.562Z" fill="#0066A2"/>
<path d="M8.68747 150.437H0.812469V158.312H8.68747V150.437Z" fill="#0066A2"/>
<path d="M55.9375 150.437H48.0625V158.312H55.9375V150.437Z" fill="#0066A2"/>
<path d="M79.5625 150.437H71.6875L71.6875 158.312H79.5625V150.437Z" fill="#0066A2"/>
<path d="M95.3125 150.437H87.4375V158.312H95.3125V150.437Z" fill="#0066A2"/>
<path d="M103.187 150.437H95.3125V158.312H103.187V150.437Z" fill="#0066A2"/>
<path d="M111.062 150.437H103.187V158.312H111.062V150.437Z" fill="#0066A2"/>
<path d="M118.937 150.437H111.062V158.312H118.937V150.437Z" fill="#0066A2"/>
<path d="M126.812 150.437H118.937V158.312H126.812V150.437Z" fill="#0066A2"/>
<path d="M166.187 150.437H158.312V158.312H166.187V150.437Z" fill="#0066A2"/>
<path d="M8.68747 158.312H0.812469V166.187H8.68747V158.312Z" fill="#0066A2"/>
<path d="M16.5625 158.312H8.68747V166.187H16.5625V158.312Z" fill="#0066A2"/>
<path d="M24.4375 158.312H16.5625V166.187H24.4375V158.312Z" fill="#0066A2"/>
<path d="M32.3125 158.312H24.4375V166.187H32.3125V158.312Z" fill="#0066A2"/>
<path d="M40.1875 158.312H32.3125V166.187H40.1875V158.312Z" fill="#0066A2"/>
<path d="M48.0625 158.312H40.1875V166.187H48.0625V158.312Z" fill="#0066A2"/>
<path d="M55.9375 158.312H48.0625V166.187H55.9375V158.312Z" fill="#0066A2"/>
<path d="M79.5625 158.312H71.6875V166.187H79.5625V158.312Z" fill="#0066A2"/>
<path d="M95.3125 158.312H87.4375V166.187H95.3125V158.312Z" fill="#0066A2"/>
<path d="M126.812 158.312H118.937V166.187H126.812V158.312Z" fill="#0066A2"/>
</svg>
