<svg width="132" height="132" viewBox="0 0 132 132" fill="none" xmlns="http://www.w3.org/2000/svg">
<path d="M66 132C102.451 132 132 102.451 132 66C132 29.5492 102.451 0 66 0C29.5492 0 0 29.5492 0 66C0 102.451 29.5492 132 66 132Z" fill="#0066A2"/>
<path d="M39.6421 77.96C38.1977 76.8526 34.9644 74.2498 34.9644 74.2498L43.2144 64.0355C43.2144 64.0355 53.5717 71.1769 58.1743 74.7064L82.0413 43.5693C83.1323 42.1462 86.0358 38.1069 86.0358 38.1069C89.7671 40.8076 93.3747 43.5305 97.0358 46.3569L60.5001 91.5355C60.5001 91.5355 46.6508 83.3214 39.6421 77.96Z" fill="white"/>
</svg>
